<svg width="20" height="21" viewBox="0 0 20 21" fill="none" xmlns="http://www.w3.org/2000/svg">
<path d="M14.9937 5.50628C14.652 5.16457 14.098 5.16457 13.7563 5.50628L10 9.26256L6.24372 5.50628L6.17726 5.44622C5.83359 5.16591 5.32663 5.18593 5.00628 5.50628C4.66457 5.84799 4.66457 6.40201 5.00628 6.74372L8.76256 10.5L5.00628 14.2563L4.94622 14.3227C4.66591 14.6664 4.68593 15.1734 5.00628 15.4937C5.34799 15.8354 5.90201 15.8354 6.24372 15.4937L10 11.7374L13.7563 15.4937L13.8227 15.5538C14.1664 15.8341 14.6734 15.8141 14.9937 15.4937C15.3354 15.152 15.3354 14.598 14.9937 14.2563L11.2374 10.5L14.9937 6.74372L15.0538 6.67726C15.3341 6.33359 15.3141 5.82663 14.9937 5.50628Z" fill="white" fill-opacity="0.64"/>
</svg>
