<?xml version="1.0" encoding="utf-8"?>
<!-- Generator: Adobe Illustrator 26.5.0, SVG Export Plug-In . SVG Version: 6.00 Build 0)  -->
<svg version="1.1" id="Layer_1" xmlns="http://www.w3.org/2000/svg" xmlns:xlink="http://www.w3.org/1999/xlink" x="0px" y="0px"
	 viewBox="0 0 512 512" style="enable-background:new 0 0 512 512;" xml:space="preserve">
<style type="text/css">
	.st0{fill:none;}
	.st1{fill:#AE362F;}
</style>
<g id="XMLID_1_">
	<path id="XMLID_10_" d="M109.39,323.09v-109.3c-6.17,6.59-10.66,13.61-13.47,20.91c-2.67,7.3-4.07,17.54-4.07,30.45v8v49.95H56.5
		v-57.95c0-13.05-1.4-23.15-4.07-30.45c-2.67-7.3-7.16-14.31-13.47-20.91v109.3H3.46V179.27h47.43c4.91,4.91,9.26,10.66,13.19,16.98
		c3.93,6.45,7.3,13.47,10.1,21.19c2.67-7.44,5.89-14.45,9.82-20.91c3.93-6.45,8.42-12.21,13.47-17.26h47.43v143.96h-35.5V323.09z
		 M198.49,272.3h17.4c-0.28-13.61-1.12-25.82-2.53-36.48c-1.4-10.66-3.51-19.64-6.03-26.94c-2.67,7.3-4.77,16.28-6.17,26.94
		C199.61,246.48,198.77,258.69,198.49,272.3z M163.13,323.09v-28.2c0-27.08,2.24-49.81,6.74-68.33
		c4.49-18.38,11.65-34.24,21.47-47.43h31.85c9.68,13.33,16.84,29.18,21.47,47.57c4.63,18.38,6.88,41.11,6.88,68.05v28.2h-35.64
		v-23.71h-17.4v23.71h-35.36V323.09z M270.05,323.09V179.27h71v27.36h-35.5v24.55h33.96v27.22h-33.96v64.96h-35.5V323.09z
		 M357.05,179.27h35.5v143.96h-35.5V179.27z M447.55,272.3h17.4c-0.28-13.61-1.12-25.82-2.53-36.48
		c-1.4-10.66-3.51-19.64-6.03-26.94c-2.67,7.3-4.77,16.28-6.17,26.94C448.67,246.48,447.83,258.69,447.55,272.3z M412.19,323.09
		v-28.2c0-27.08,2.24-49.81,6.73-68.33c4.49-18.38,11.65-34.24,21.47-47.43h31.85c9.68,13.33,16.84,29.18,21.47,47.57
		c4.63,18.38,6.88,41.11,6.88,68.05v28.2h-35.64v-23.71h-17.4v23.71h-35.36V323.09z"/>
	<line id="XMLID_11_" class="st0" x1="-0.05" y1="331.65" x2="501.43" y2="331.65"/>
	<polyline id="XMLID_12_" class="st1" points="-0.05,332.77 501.43,332.77 501.43,330.39 -0.05,330.39 	"/>
	<path id="XMLID_15_" d="M505.22,322.25v-3.51h-1.26v-0.7h3.37v0.7h-1.26v3.51H505.22z M507.88,322.25v-4.35h1.26l0.84,2.95
		l0.7-2.95h1.26v4.35h-0.84v-3.37l-0.84,3.37h-0.84l-0.84-3.37v3.37H507.88z"/>
</g>
</svg>
